<?xml version="1.0" standalone="no"?>
<!DOCTYPE svg PUBLIC "-//W3C//DTD SVG 20010904//EN"
 "http://www.w3.org/TR/2001/REC-SVG-20010904/DTD/svg10.dtd">
<svg version="1.0" xmlns="http://www.w3.org/2000/svg"
 width="630.000000pt" height="630.000000pt" viewBox="0 0 630.000000 630.000000"
 preserveAspectRatio="xMidYMid meet">

<g transform="translate(0.000000,630.000000) scale(0.100000,-0.100000)"
fill="#000000" stroke="none">
<path d="M4773 5496 c19 -29 22 -31 25 -13 2 12 -4 27 -14 34 -30 22 -34 15
-11 -21z"/>
<path d="M4160 5466 c-100 -28 -238 -119 -304 -199 l-38 -46 46 -53 c26 -29
65 -90 89 -135 23 -45 43 -80 45 -79 1 2 -17 60 -42 130 -24 69 -42 126 -39
126 2 0 26 -46 53 -102 31 -66 57 -142 74 -213 l25 -110 0 145 c0 204 9 247
78 343 19 27 33 51 31 52 -2 2 -35 18 -73 34 -80 35 -75 37 32 15 56 -11 78
-12 87 -4 8 8 6 15 -8 26 -19 13 -18 14 11 14 31 0 43 14 43 51 0 23 -39 24
-110 5z"/>
<path d="M4935 5428 c-15 -18 -39 -55 -52 -84 l-26 -51 41 -67 c42 -70 67
-154 77 -262 l6 -59 -24 60 c-38 99 -109 255 -117 260 -21 13 -15 -28 12 -85
31 -67 82 -252 76 -272 -2 -6 -12 11 -23 38 -10 27 -36 89 -58 137 -31 67 -43
85 -49 73 -5 -9 -7 -20 -3 -25 3 -5 0 -11 -6 -13 -8 -3 1 -39 28 -109 22 -57
50 -133 62 -169 19 -58 25 -67 53 -75 131 -39 144 -438 28 -789 -37 -110 -40
-126 -40 -232 0 -78 7 -145 21 -210 11 -53 18 -98 16 -101 -8 -7 -54 97 -68
151 -12 47 -8 169 6 211 4 11 -17 -23 -46 -75 -59 -103 -87 -144 -162 -233
l-49 -57 6 -78 6 -77 -23 63 -22 63 -25 -26 c-22 -23 -23 -29 -13 -66 l11 -40
-27 25 -26 25 -29 -22 c-25 -21 -26 -24 -12 -36 28 -23 18 -37 -43 -65 -68
-30 -75 -31 -67 -11 8 21 -1 19 -53 -14 -116 -74 -358 -167 -380 -146 -3 4 15
23 39 43 126 103 216 206 285 326 26 44 27 49 12 58 -27 14 -20 31 21 55 34
19 43 33 80 126 23 58 42 107 42 109 0 8 -151 -70 -171 -88 -19 -17 -21 -26
-15 -91 5 -48 3 -74 -5 -78 -6 -4 -9 -16 -6 -26 3 -12 -2 -23 -13 -29 -25 -14
-150 70 -209 140 -48 57 -113 104 -133 98 -7 -3 2 -12 22 -23 44 -22 88 -62
106 -97 17 -32 5 -38 -14 -8 -6 11 -40 40 -74 65 l-63 46 -58 -63 c-66 -73
-125 -177 -86 -152 7 4 10 1 7 -7 -7 -22 -43 -17 -44 6 -1 11 -2 23 -3 27 -1
4 -22 -2 -47 -12 -54 -24 -60 -24 -45 -6 10 12 7 13 -23 4 -73 -23 -54 18 28
59 60 31 155 118 196 183 33 52 37 70 16 70 -8 0 -18 10 -21 21 -5 15 -9 18
-15 9 -14 -22 -19 5 -9 50 13 56 25 70 60 70 23 0 29 5 29 21 0 12 17 42 38
68 78 94 101 136 126 231 37 137 66 286 66 335 0 49 -53 242 -100 363 -33 85
-148 285 -165 286 -5 1 -23 -25 -40 -56 -27 -53 -29 -60 -16 -80 42 -66 72
-132 95 -208 25 -86 32 -91 17 -13 -12 63 4 43 39 -49 32 -83 31 -97 -9 -98
-10 0 -12 -9 -7 -37 3 -21 6 -49 6 -63 0 -17 3 -21 9 -12 4 7 34 16 66 19 l58
6 -7 -49 c-8 -64 -49 -146 -88 -179 -30 -25 -30 -26 -18 -70 33 -119 -8 -222
-145 -360 -71 -72 -222 -185 -246 -185 -5 0 -9 36 -9 79 l0 79 55 18 c76 23
78 35 6 27 l-61 -6 -1 94 c-1 52 0 128 1 169 1 41 0 73 -3 70 -3 -3 -18 -40
-35 -83 -39 -101 -95 -194 -172 -286 l-63 -74 8 -76 c10 -92 7 -223 -5 -235
-13 -13 -36 9 -71 70 -17 30 -41 67 -54 82 -12 15 -26 43 -30 62 -4 19 -15 42
-25 50 -16 13 -18 22 -10 65 5 28 15 70 22 95 12 44 12 45 18 15 6 -27 9 -22
29 45 22 73 78 180 93 180 5 0 8 -17 9 -37 0 -21 2 -63 3 -93 1 -30 3 -72 4
-94 2 -34 4 -37 18 -25 29 24 96 130 135 214 110 234 144 445 104 639 -13 61
-59 169 -102 239 -3 6 -16 -41 -29 -104 -48 -247 -124 -404 -270 -559 -47 -49
-53 -62 -59 -110 -5 -40 -4 -51 4 -40 17 24 13 2 -8 -38 -24 -47 -187 -238
-237 -277 -51 -40 -87 -65 -96 -65 -5 0 -8 29 -8 65 0 48 4 66 16 73 15 8 15
10 0 15 -12 5 -16 20 -16 59 -1 29 -8 89 -16 133 -26 133 -26 138 -4 165 l21
25 -7 -25 c-4 -14 -9 -32 -11 -40 -9 -27 35 34 74 103 l38 68 40 -6 c31 -4 36
-3 23 6 -10 5 -18 21 -18 34 0 32 33 40 101 26 55 -12 70 -8 51 11 -20 20 -14
28 19 28 26 0 29 -3 24 -20 -3 -11 -8 -32 -11 -47 -3 -16 -14 -64 -25 -107
-10 -44 -17 -81 -15 -83 2 -3 27 23 54 56 161 193 219 350 209 564 -5 101 -30
227 -46 227 -3 0 -26 -31 -51 -67 -81 -121 -211 -195 -422 -243 -76 -17 -98
-26 -103 -41 -6 -19 -35 -27 -35 -9 0 6 -9 10 -21 10 -15 0 -19 -4 -15 -16 5
-13 1 -14 -24 -9 -36 8 -36 6 -10 -38 11 -19 29 -76 40 -128 31 -142 33 -162
6 -81 -39 119 -39 120 -16 -123 6 -55 6 -134 2 -175 l-8 -75 -6 130 c-6 115
-44 314 -63 333 -3 3 -3 -80 0 -184 4 -186 4 -188 -11 -124 -28 120 -66 234
-100 300 -18 36 -33 59 -34 52 0 -7 15 -84 34 -170 36 -162 53 -261 43 -252
-3 3 -27 79 -53 170 -27 91 -50 157 -52 148 -2 -10 4 -63 13 -119 9 -56 14
-103 12 -105 -5 -5 -56 155 -81 253 -12 46 -25 83 -31 84 -12 1 -40 -77 -64
-185 l-19 -81 -3 80 c-3 107 -3 107 5 132 7 21 6 22 -31 7 -21 -9 -76 -41
-123 -73 l-85 -58 2 -44 2 -44 -11 33 c-6 17 -14 32 -17 32 -14 0 -155 -148
-196 -205 -87 -121 -172 -323 -179 -423 -2 -27 -9 -65 -16 -86 -22 -68 -5 -47
49 60 29 58 55 104 57 101 3 -2 0 -26 -6 -52 -6 -26 -9 -49 -7 -51 2 -2 14 19
27 46 16 34 28 49 38 45 7 -3 22 0 32 5 15 8 20 6 26 -12 6 -19 7 -20 16 -4 9
16 11 16 35 1 22 -15 26 -15 42 -1 23 21 31 20 32 -1 1 -10 6 2 12 27 l12 45
3 -48 c2 -30 -2 -55 -10 -65 -10 -12 -10 -14 0 -8 27 16 -1 -151 -38 -224 -31
-60 -152 -179 -245 -239 -44 -29 -81 -54 -83 -56 -7 -6 22 -165 30 -165 4 0 8
4 8 9 0 12 80 101 91 101 29 0 -20 -230 -56 -260 -15 -13 -19 -38 -9 -63 4
-12 16 -10 67 11 52 20 82 44 179 140 226 223 382 302 573 289 69 -5 202 -41
221 -60 3 -3 -1 -18 -9 -34 -58 -112 -82 -298 -54 -410 9 -35 29 -86 44 -115
l27 -53 9 45 c18 91 47 86 47 -7 0 -29 -4 -53 -10 -53 -25 0 -5 -32 50 -84
107 -98 303 -179 514 -211 l39 -6 -69 -51 c-238 -174 -1284 -848 -1317 -848
-7 0 -28 265 -30 387 -1 62 -4 113 -7 113 -24 -1 -217 -295 -380 -580 -119
-208 -344 -649 -336 -657 14 -14 2337 1294 2796 1574 63 39 189 114 280 168
271 160 433 275 573 406 61 57 66 64 52 79 -22 24 -18 31 10 18 22 -10 29 -9
47 9 l21 21 -32 16 c-42 22 -40 30 3 12 32 -13 36 -13 52 5 16 18 15 19 -7 28
-110 41 -143 65 -165 118 -27 63 -12 181 31 245 9 13 11 0 11 -65 0 -62 5 -93
20 -127 33 -72 139 -161 163 -137 16 16 15 18 -43 79 -56 58 -86 124 -86 191
0 45 21 157 29 157 4 0 15 -34 25 -76 21 -87 74 -199 111 -234 l26 -25 19 25
c24 30 24 39 5 76 -37 75 -49 156 -49 334 -1 151 7 260 19 249 1 -2 -1 -58 -5
-124 -14 -193 16 -395 65 -435 25 -21 29 15 7 52 -21 34 -48 125 -40 134 3 2
22 -23 42 -56 21 -33 39 -60 41 -60 2 0 9 9 15 19 7 15 4 29 -15 63 -33 58
-31 65 9 34 29 -22 35 -23 40 -9 4 10 -10 33 -44 69 -64 67 -80 106 -79 186
l1 63 23 -68 c28 -86 105 -201 121 -184 10 10 52 195 64 282 8 58 10 169 8
310 -5 265 -15 307 -137 613 -117 289 -126 326 -126 504 0 82 -1 148 -2 148 0
0 -13 -14 -28 -32z m-1956 -637 c12 -49 21 -114 21 -145 l0 -56 -36 0 c-21 0
-33 4 -29 10 3 6 16 10 28 10 16 0 18 3 10 11 -9 9 -28 5 -78 -16 -36 -16 -67
-26 -70 -23 -3 3 10 38 28 79 19 41 46 107 62 147 15 39 32 72 36 72 4 0 17
-40 28 -89z m291 -409 c0 -25 -26 -59 -50 -65 -28 -7 -26 15 6 52 29 35 44 39
44 13z m-1094 -68 c-3 -8 3 -23 13 -33 18 -18 78 -158 70 -165 -2 -2 -24 -6
-49 -9 -25 -3 -52 -8 -61 -12 -12 -4 -18 1 -22 23 -12 57 25 228 45 215 5 -3
7 -11 4 -19z m-412 -97 c27 -85 49 -187 42 -194 -7 -7 -121 -32 -125 -27 -2 2
2 4 9 4 7 0 11 3 8 6 -9 8 -48 -15 -74 -45 -15 -16 -22 -20 -18 -8 3 9 10 17
16 17 5 0 7 4 3 9 -3 6 10 61 29 123 18 62 39 140 46 173 11 52 14 57 25 42 7
-10 25 -55 39 -100z m276 -155 c0 -5 -11 -19 -25 -32 -29 -27 -32 -21 -9 15
16 24 34 33 34 17z m277 -12 c3 -11 9 -20 13 -20 5 0 18 -15 29 -34 19 -29 21
-45 17 -127 -7 -162 -62 -286 -174 -390 l-57 -54 -6 145 c-3 80 -13 183 -22
230 -17 88 -12 144 14 177 12 13 15 9 25 -33 6 -27 12 -39 13 -26 1 19 5 22
24 17 12 -4 27 -13 33 -21 6 -8 17 -14 24 -14 19 0 67 57 74 87 l6 28 -16 -22
c-38 -54 -93 -4 -68 61 9 24 65 21 71 -4z m-521 -81 c3 -6 -1 -18 -10 -27 -15
-15 -17 -15 -32 0 -19 19 -11 38 16 38 10 0 22 -5 26 -11z m1217 -149 c-7 -8
-23 25 -18 38 3 8 6 26 6 40 1 15 5 5 9 -23 4 -27 5 -52 3 -55z m-990 -2 c-48
-51 -70 -54 -25 -3 23 26 43 53 43 59 1 6 3 3 6 -7 3 -12 -6 -30 -24 -49z
m917 26 c13 -32 5 -63 -36 -145 -32 -64 -41 -103 -63 -272 -12 -86 -46 -177
-67 -177 -24 0 -73 100 -79 160 -3 30 -9 88 -13 128 -8 71 -7 74 17 92 l26 18
-28 -5 c-22 -4 -27 -2 -27 16 0 23 20 46 124 142 l69 64 -7 -45 c-4 -25 -16
-60 -26 -77 -27 -46 -10 -41 39 12 32 35 41 52 41 80 0 41 16 46 30 9z m2189
-121 c24 -29 39 -53 34 -53 -18 0 -93 93 -93 114 0 11 -2 13 59 -61z m-1545
-173 c-14 -62 -33 -90 -61 -90 -9 0 -10 6 -2 28 11 30 71 133 76 129 1 -2 -5
-32 -13 -67z m-1932 -339 c-6 -42 -8 -96 -5 -121 l5 -46 -50 -27 c-27 -15 -52
-27 -54 -27 -3 0 10 41 29 90 18 50 44 127 56 170 25 91 33 74 19 -39z m1277
-57 l-13 -29 -4 27 c-2 15 3 37 10 50 12 22 13 22 16 2 1 -11 -3 -34 -9 -50z
m-1232 31 c-4 -8 -11 -15 -17 -15 -14 0 -13 27 3 33 16 6 21 1 14 -18z m2964
-35 c28 -16 23 -27 -17 -40 -41 -14 -56 -5 -43 28 9 24 29 28 60 12z m-2963
-37 c-8 -10 -14 -11 -25 -1 -13 10 -12 14 3 25 22 16 39 -4 22 -24z m2882 10
c0 -10 9 -33 21 -52 11 -18 19 -34 17 -35 -22 -14 -164 -62 -166 -56 -2 5 4
22 13 39 21 42 12 39 -15 -4 -12 -19 -28 -35 -35 -35 -14 0 -55 46 -55 62 0
12 129 70 140 63 5 -3 12 0 15 6 7 10 41 27 58 28 4 1 7 -7 7 -16z m-1746 -84
l25 -12 -42 -60 -42 -60 -3 33 c-3 27 23 110 34 110 2 0 14 -5 28 -11z m-108
-76 c-17 -47 -54 -123 -61 -123 -3 0 -5 15 -5 33 0 22 12 49 38 83 20 28 38
50 40 49 1 -1 -4 -20 -12 -42z m165 -61 c-28 -93 -71 -152 -111 -152 -17 0
-30 5 -30 10 0 6 26 45 58 88 33 42 67 90 77 105 27 42 29 25 6 -51z m1389
-62 c0 -14 7 -36 17 -49 16 -23 15 -25 -6 -43 -13 -10 -26 -18 -30 -18 -3 1
-25 33 -49 72 -30 51 -39 74 -31 79 8 5 24 -12 46 -49 19 -31 35 -58 36 -59 1
-1 3 21 4 47 1 27 -2 52 -7 55 -6 4 -10 14 -10 23 1 28 29 -29 30 -58z m-88
-43 c38 -64 45 -82 29 -82 -14 0 -92 125 -86 136 11 17 20 9 57 -54z m-36 -37
c32 -52 38 -70 28 -74 -8 -3 -20 7 -30 25 -8 17 -18 29 -21 26 -2 -3 3 -17 13
-32 11 -16 14 -29 7 -36 -6 -6 -24 15 -51 57 -46 71 -48 104 -9 104 16 -1 33
-19 63 -70z m-124 44 c9 -3 18 -14 21 -25 3 -10 1 -17 -4 -13 -17 10 -9 -11
26 -66 21 -34 30 -59 25 -64 -11 -11 -8 -15 -51 54 -19 30 -40 55 -48 55 -8 0
-15 12 -17 29 -4 35 3 49 19 42 7 -4 19 -9 29 -12z m-28 -137 c3 -16 16 -42
27 -59 18 -25 19 -32 8 -39 -9 -5 -17 -2 -23 9 -5 9 -29 38 -53 64 -23 26 -43
51 -43 56 0 22 16 20 38 -5 l24 -28 -16 28 c-9 15 -14 33 -10 39 9 15 41 -28
48 -65z m-74 -24 c0 -3 16 -26 36 -49 27 -34 31 -44 19 -44 -10 0 -26 11 -37
26 -25 31 -35 25 -13 -9 11 -18 13 -27 5 -32 -14 -8 -8 -15 -59 67 -44 69 -45
84 -8 97 18 7 25 3 39 -21 10 -15 18 -31 18 -35z m-39 -95 c17 -24 19 -32 9
-38 -10 -6 -26 12 -57 62 -32 52 -41 73 -31 79 8 5 20 -6 35 -32 12 -22 32
-54 44 -71z m-101 74 c0 -5 18 -36 39 -70 36 -55 41 -72 20 -72 -4 0 -16 15
-28 33 -11 17 -21 28 -21 24 0 -5 9 -22 20 -37 14 -19 17 -31 10 -35 -14 -9
-11 -11 -60 63 -44 69 -45 73 -28 90 14 14 48 16 48 4z m-60 -51 c13 -26 13
-31 -5 -31 -8 0 -15 5 -15 12 0 6 -2 9 -5 6 -11 -10 8 -38 23 -36 12 2 17 -5
17 -24 1 -14 7 -33 15 -42 10 -13 10 -20 2 -28 -7 -7 -13 -10 -15 -7 -2 2 -23
35 -46 73 -41 65 -42 70 -25 83 25 18 42 16 54 -6z m-1406 -867 c3 -8 2 -12
-4 -9 -6 3 -10 10 -10 16 0 14 7 11 14 -7z m-33 -66 c23 -38 37 -53 34 -38 -3
14 -2 37 4 50 l10 25 0 -25 c1 -14 8 -35 16 -47 15 -21 14 -23 -10 -39 -14 -9
-27 -15 -29 -13 -11 13 -86 137 -86 143 0 21 26 -3 61 -56z m-42 -24 c42 -66
48 -84 32 -84 -14 0 -93 129 -86 140 9 15 10 14 54 -56z m-62 9 c7 -16 24 -47
38 -70 15 -24 22 -44 16 -47 -5 -4 -18 7 -27 24 -10 16 -22 30 -27 30 -5 0 1
-15 13 -34 11 -19 16 -37 11 -40 -9 -6 -91 114 -91 132 0 13 23 32 40 32 9 0
21 -12 27 -27z m-101 -10 c17 -11 21 -18 13 -23 -8 -5 1 -26 29 -69 24 -35 37
-63 31 -67 -12 -7 -9 -12 -54 60 -28 43 -39 55 -46 45 -5 -8 -9 -9 -10 -4 0 6
-2 25 -5 43 -4 36 5 40 42 15z m-25 -133 c6 -19 20 -47 30 -61 16 -23 17 -28
4 -33 -8 -3 -15 -2 -15 3 0 4 -25 36 -55 71 -39 45 -52 66 -43 71 8 5 19 -3
31 -21 25 -39 32 -38 12 0 -19 37 -8 64 11 29 7 -13 19 -40 25 -59z m-94 16
c12 -13 19 -26 17 -29 -3 -2 12 -24 32 -48 22 -26 31 -45 24 -47 -6 -2 -25 11
-40 29 -33 39 -40 31 -10 -11 18 -25 18 -40 0 -40 -4 0 -24 28 -45 63 -21 34
-43 65 -48 68 -8 6 29 39 43 39 4 0 16 -11 27 -24z m-38 -103 c25 -39 35 -63
28 -66 -14 -5 -98 123 -90 136 7 12 15 3 62 -70z m-46 -19 c41 -70 42 -99 1
-49 -25 32 -33 23 -9 -9 17 -23 19 -36 6 -36 -5 0 -28 29 -50 65 -43 67 -45
95 -7 95 15 0 31 -18 59 -66z m-95 11 c9 -20 9 -25 -1 -25 -7 0 -19 6 -26 13
-10 10 -11 8 -5 -6 4 -10 18 -23 32 -28 19 -7 22 -13 14 -21 -8 -8 -6 -18 9
-39 13 -18 16 -30 9 -34 -14 -8 -9 -13 -58 65 -38 60 -40 66 -25 82 22 25 38
23 51 -7z"/>
<path d="M1738 4023 c7 -3 16 -2 19 1 4 3 -2 6 -13 5 -11 0 -14 -3 -6 -6z"/>
<path d="M4090 2804 c0 -6 7 -19 15 -30 8 -10 14 -14 14 -9 0 6 -6 19 -14 29
-8 11 -15 15 -15 10z"/>
<path d="M3880 2661 c0 -6 4 -13 10 -16 6 -3 7 1 4 9 -7 18 -14 21 -14 7z"/>
<path d="M3770 2580 c6 -11 13 -20 16 -20 2 0 0 9 -6 20 -6 11 -13 20 -16 20
-2 0 0 -9 6 -20z"/>
<path d="M2150 1615 c0 -15 18 -40 24 -34 3 3 -1 14 -9 25 -8 10 -14 15 -15 9z"/>
<path d="M2050 1609 c0 -5 5 -7 10 -4 6 3 10 8 10 11 0 2 -4 4 -10 4 -5 0 -10
-5 -10 -11z"/>
<path d="M1940 1472 c6 -13 14 -21 18 -18 3 4 -2 14 -12 24 -18 16 -18 16 -6
-6z"/>
<path d="M1820 1415 c0 -15 18 -40 24 -34 3 3 -1 14 -9 25 -8 10 -14 15 -15 9z"/>
<path d="M4752 5420 c7 -11 17 -20 22 -20 5 0 1 9 -9 20 -10 11 -20 20 -22 20
-2 0 2 -9 9 -20z"/>
<path d="M4260 5157 c0 -8 -3 -22 -6 -30 -3 -9 2 -20 14 -26 19 -10 19 -8 12
25 -9 39 -20 56 -20 31z"/>
<path d="M4325 5115 c4 -11 16 -44 26 -74 24 -68 24 -74 -1 -33 -11 17 -22 32
-26 32 -10 0 96 -191 141 -255 23 -33 64 -84 90 -112 26 -29 43 -53 37 -53
-17 0 -150 99 -215 160 -64 59 -91 102 -123 194 -14 40 -19 46 -24 30 -12 -32
-22 -151 -12 -136 7 11 32 -6 108 -73 55 -48 98 -93 98 -101 -1 -8 7 -14 19
-14 22 0 97 -73 97 -94 0 -8 -18 -23 -40 -35 -22 -11 -53 -35 -69 -53 l-30
-33 -64 70 c-54 58 -71 85 -98 157 -22 57 -37 84 -43 78 -18 -18 79 -194 144
-264 33 -35 58 -65 56 -67 -2 -2 2 -10 10 -17 12 -11 16 -9 24 12 8 21 37 46
53 46 3 0 4 -22 4 -50 -1 -53 9 -73 23 -50 7 12 12 12 34 0 14 -7 29 -11 32
-8 3 4 7 42 9 86 2 44 7 88 13 98 5 11 12 47 15 81 l7 62 -56 53 c-76 71 -135
156 -195 280 -28 57 -47 94 -44 83z"/>
<path d="M4548 4995 c23 -44 52 -98 66 -120 24 -38 25 -39 26 -13 0 16 -22 59
-57 110 -76 113 -82 116 -35 23z"/>
<path d="M3685 4935 c-9 -33 -21 -73 -26 -89 -12 -39 -10 -83 7 -131 13 -38
13 -37 9 53 -3 50 -3 92 -1 92 5 0 133 -200 141 -220 4 -12 -26 -31 -121 -79
-129 -65 -137 -73 -151 -141 -4 -22 1 -28 32 -43 l37 -18 -22 28 -21 28 23 18
c35 29 115 67 139 67 13 0 31 -8 41 -17 17 -15 20 -16 35 0 16 15 15 18 0 35
-9 10 -17 28 -17 40 0 22 34 47 50 37 6 -3 10 -4 10 -2 0 12 -92 271 -118 332
l-30 69 -17 -59z"/>
<path d="M4469 4932 c31 -61 141 -203 151 -197 18 11 11 31 -21 61 -17 16 -56
62 -86 102 -31 39 -57 72 -60 72 -2 0 5 -17 16 -38z"/>
<path d="M4750 4906 c0 -26 92 -196 107 -196 28 0 22 25 -21 94 -26 41 -55 85
-66 97 -17 22 -19 22 -20 5z"/>
<path d="M4733 4744 c-3 -9 2 -29 11 -45 15 -25 15 -28 1 -23 -25 10 -21 -151
4 -190 l19 -29 7 39 c3 21 17 73 30 114 l24 75 -36 37 c-41 42 -51 46 -60 22z"/>
<path d="M4176 4644 c-19 -127 -48 -297 -60 -346 -7 -32 -11 -58 -8 -58 8 0
40 37 96 112 34 44 46 55 55 45 7 -10 5 -24 -9 -53 -32 -63 -108 -154 -130
-154 -18 0 -47 -36 -37 -46 2 -2 26 15 52 38 26 24 78 59 114 78 63 33 66 37
63 68 -3 24 1 32 13 32 13 0 11 7 -9 33 -15 19 -35 58 -45 88 -10 30 -35 87
-54 128 l-35 74 -6 -39z"/>
<path d="M3841 4544 c-13 -29 -6 -47 9 -24 9 14 14 50 7 50 -2 0 -9 -12 -16
-26z"/>
<path d="M3880 4493 c0 -4 5 -15 10 -23 8 -13 10 -13 10 2 0 9 -4 20 -10 23
-5 3 -10 3 -10 -2z"/>
<path d="M2972 4263 c-11 -10 -23 -29 -27 -43 -8 -26 -7 -26 48 48 14 18 3 15
-21 -5z"/>
<path d="M4214 3925 c-3 -8 -3 -18 0 -23 8 -13 -17 -22 -62 -23 l-37 -1 30
-10 c31 -10 70 -62 59 -79 -3 -5 0 -9 6 -9 7 0 10 -6 7 -14 -3 -7 5 -30 17
-51 19 -30 24 -34 29 -20 4 9 7 27 7 41 0 19 12 30 58 53 52 26 101 67 91 74
-16 12 -171 77 -184 77 -9 0 -18 -7 -21 -15z m84 -42 c-10 -2 -26 -2 -35 0
-10 3 -2 5 17 5 19 0 27 -2 18 -5z"/>
<path d="M1437 3658 c-7 -27 -3 -32 18 -24 18 6 17 37 -1 43 -6 2 -14 -6 -17
-19z"/>
<path d="M1430 3525 c0 -12 13 -15 58 -14 l57 1 -40 13 c-54 18 -75 18 -75 0z"/>
<path d="M1430 3469 c0 -22 23 -25 39 -5 9 11 6 15 -14 18 -19 4 -25 1 -25
-13z"/>
<path d="M4150 3467 c0 -19 32 -35 55 -27 18 6 17 9 -12 23 -38 20 -43 21 -43
4z"/>
<path d="M1539 2921 c-17 -14 -21 -23 -13 -30 7 -8 17 -2 32 19 26 34 16 39
-19 11z"/>
</g>
</svg>
